<svg width="100" height="100" viewBox="0 0 100 100" fill="none" xmlns="http://www.w3.org/2000/svg">
<circle cx="50" cy="50" r="50" fill="#D9D9D9" fill-opacity="0.5"/>
<path d="M48.1 58.4C48.1 56.76 48.36 55.32 48.88 54.08C49.44 52.84 50.12 51.78 50.92 50.9C51.72 50.02 52.76 49.02 54.04 47.9C55.76 46.38 57.02 45.06 57.82 43.94C58.66 42.78 59.08 41.38 59.08 39.74C59.08 37.54 58.22 35.78 56.5 34.46C54.78 33.1 52.42 32.42 49.42 32.42C44.46 32.42 40.64 34.04 37.96 37.28L34.78 34.88C38.18 30.72 43.16 28.64 49.72 28.64C53.92 28.64 57.26 29.58 59.74 31.46C62.26 33.34 63.52 35.88 63.52 39.08C63.52 40.72 63.24 42.18 62.68 43.46C62.16 44.7 61.5 45.76 60.7 46.64C59.94 47.52 58.92 48.54 57.64 49.7C55.92 51.26 54.64 52.66 53.8 53.9C52.96 55.1 52.54 56.6 52.54 58.4H48.1ZM50.32 71.3C49.44 71.3 48.7 71 48.1 70.4C47.5 69.76 47.2 69.02 47.2 68.18C47.2 67.3 47.5 66.58 48.1 66.02C48.7 65.42 49.44 65.12 50.32 65.12C51.24 65.12 52 65.42 52.6 66.02C53.2 66.58 53.5 67.3 53.5 68.18C53.5 69.02 53.18 69.76 52.54 70.4C51.94 71 51.2 71.3 50.32 71.3Z" fill="black"/>
</svg>
